<?xml version="1.0" standalone="no"?>
<!DOCTYPE svg PUBLIC "-//W3C//DTD SVG 20010904//EN"
 "http://www.w3.org/TR/2001/REC-SVG-20010904/DTD/svg10.dtd">
<svg version="1.0" xmlns="http://www.w3.org/2000/svg"
 width="1024.000000pt" height="1024.000000pt" viewBox="0 0 1024.000000 1024.000000"
 preserveAspectRatio="xMidYMid meet">

<g transform="translate(0.000000,1024.000000) scale(0.100000,-0.100000)"
fill="#000000" stroke="none">
<path d="M5614 7125 c-28 -14 -104 -77 -181 -150 -72 -69 -138 -125 -146 -125
-8 0 -42 14 -75 30 -34 17 -64 30 -67 30 -3 0 -32 12 -63 26 -31 14 -124 51
-207 81 -82 30 -181 66 -220 81 -79 29 -112 26 -151 -13 -31 -31 -30 -56 2
-95 24 -28 321 -231 456 -311 32 -19 58 -39 58 -45 0 -7 -20 -28 -44 -48 -24
-19 -88 -79 -142 -131 -112 -108 -89 -102 -255 -60 -69 18 -116 25 -134 21
-37 -9 -87 -60 -79 -81 8 -21 71 -64 170 -115 43 -23 84 -46 90 -51 7 -5 22
-42 34 -82 56 -182 75 -217 115 -217 50 0 74 78 75 238 0 57 4 76 18 90 82 77
190 170 216 186 17 11 46 33 64 48 19 16 38 28 43 26 6 -2 20 -33 33 -68 13
-36 59 -148 103 -250 44 -102 88 -208 97 -236 29 -89 81 -109 118 -46 15 25
16 47 8 213 -5 101 -12 213 -16 248 -6 60 -6 63 12 53 25 -13 69 -4 89 18 9
10 19 36 22 58 7 51 -20 82 -72 82 -31 0 -38 -5 -50 -32 -13 -31 -14 -26 -17
81 -2 62 -1 116 2 120 12 15 178 161 183 161 10 0 95 87 105 107 6 10 17 42
26 72 l16 53 -29 29 c-26 26 -36 29 -93 29 -48 0 -76 -6 -114 -25z m84 -102
c-4 -35 -48 -48 -48 -14 0 18 23 40 43 41 5 0 7 -12 5 -27z"/>
<path d="M5121 7055 c-48 -63 -33 -117 37 -130 32 -6 40 -3 59 20 30 34 29 66
-3 104 -32 38 -65 40 -93 6z"/>
<path d="M4467 5392 c-62 -41 -73 -90 -32 -135 65 -69 107 -72 150 -10 44 65
27 127 -41 153 -35 14 -45 13 -77 -8z"/>
<path d="M3914 5381 c-2 -2 -4 -73 -4 -158 l0 -153 -185 0 -185 0 0 155 0 156
-92 -3 -93 -3 0 -385 c0 -212 3 -395 7 -407 7 -21 13 -23 93 -23 l86 0 -3 169
-3 169 187 -2 188 -1 2 -165 3 -165 93 -3 c69 -2 92 0 93 10 1 7 1 191 1 408
l0 395 -92 5 c-50 3 -94 3 -96 1z"/>
<path d="M6226 5371 c-3 -9 -6 -135 -7 -281 -2 -193 1 -276 11 -307 29 -93
129 -187 233 -218 59 -17 185 -20 240 -4 65 18 144 74 156 111 6 18 24 45 40
60 49 47 56 95 56 388 l0 265 -93 2 c-87 1 -92 0 -97 -20 -3 -12 -6 -138 -7
-279 -3 -241 -4 -258 -24 -285 -73 -100 -252 -85 -306 26 -20 41 -21 58 -20
235 1 105 -2 220 -6 256 l-7 65 -82 1 c-67 1 -84 -2 -87 -15z"/>
<path d="M4945 5158 c-3 -123 -5 -306 -3 -408 l3 -185 86 -3 86 -3 6 122 c4
67 7 174 7 237 l0 116 71 -120 c39 -65 85 -146 101 -179 17 -33 39 -72 50 -87
46 -66 102 -18 223 197 17 29 49 81 73 115 l42 63 0 -179 c0 -98 3 -203 6
-231 l7 -53 92 0 c66 0 94 4 97 13 2 6 2 191 0 410 l-4 397 -99 0 -99 0 -20
-39 c-11 -22 -71 -126 -135 -232 -63 -106 -115 -201 -115 -211 0 -34 -16 -18
-51 55 -35 70 -161 299 -213 385 l-25 42 -90 0 -89 0 -7 -222z"/>
<path d="M7261 5131 c-15 -27 -14 -47 5 -65 22 -23 361 -23 404 -1 35 18 36
25 11 56 -19 24 -23 24 -214 27 -187 3 -196 2 -206 -17z"/>
<path d="M2875 5129 c-22 -4 -84 -8 -137 -8 -125 -1 -150 -10 -146 -53 l3 -33
196 0 c210 0 229 4 229 51 0 46 -53 62 -145 43z"/>
<path d="M4430 5091 c-11 -22 -13 -213 -3 -403 l6 -128 89 0 88 0 0 263 c0
191 -3 266 -12 275 -7 7 -41 12 -85 12 -61 0 -74 -3 -83 -19z"/>
<path d="M2588 4980 c-23 -14 -23 -32 0 -60 17 -21 28 -23 207 -29 206 -8 215
-6 215 46 0 28 -8 30 -180 38 -74 3 -155 8 -180 10 -25 3 -53 1 -62 -5z"/>
<path d="M7442 4981 c-129 -5 -165 -9 -172 -21 -14 -21 -12 -43 4 -65 12 -17
25 -18 202 -11 132 4 190 10 196 19 4 6 8 26 8 43 0 34 -15 45 -53 42 -12 -1
-95 -4 -185 -7z"/>
<path d="M4219 4231 c-16 -16 -29 -34 -29 -39 0 -21 52 -71 79 -77 35 -7 44
-26 26 -52 -13 -17 -14 -17 -39 6 -30 28 -59 22 -54 -11 4 -31 63 -51 111 -37
40 11 53 23 62 61 8 31 -19 64 -62 74 -33 8 -65 33 -57 45 3 5 30 6 60 3 44
-6 54 -4 54 8 0 27 -35 48 -79 48 -34 0 -49 -6 -72 -29z"/>
<path d="M4550 4234 c-34 -29 -60 -73 -60 -102 0 -10 14 -37 31 -60 56 -77
140 -79 196 -6 32 42 36 114 7 145 -49 55 -124 65 -174 23z m118 -46 c17 -17
15 -69 -4 -96 -18 -26 -60 -29 -86 -5 -22 20 -23 70 -1 95 18 20 73 24 91 6z"/>
<path d="M4883 4244 c-13 -35 27 -214 49 -214 7 0 9 15 5 43 l-5 42 21 -42
c16 -32 27 -43 44 -43 13 0 23 6 23 13 1 6 7 26 15 42 l13 30 -4 -40 -5 -40
24 45 c26 48 63 157 56 164 -2 2 -14 7 -26 10 -20 6 -27 -1 -61 -70 l-39 -77
-17 44 c-35 88 -48 109 -67 109 -11 0 -22 -7 -26 -16z"/>
<path d="M5333 4254 c-13 -6 -93 -202 -93 -228 0 -28 39 -18 56 15 12 24 20
30 37 25 12 -3 31 -6 43 -6 12 0 25 -10 32 -25 8 -17 20 -25 37 -25 14 0 25 2
25 5 0 12 -74 183 -92 213 -20 32 -23 34 -45 26z m29 -109 c3 -23 0 -35 -8
-35 -19 0 -25 16 -18 45 9 36 21 31 26 -10z"/>
<path d="M5603 4244 c-2 -5 -2 -59 -1 -120 l3 -109 28 -3 c26 -3 27 -2 27 45
l0 48 44 -47 c35 -38 50 -48 76 -48 l32 0 -26 31 c-31 37 -32 50 -6 74 24 22
26 71 5 102 -8 12 -30 27 -49 33 -40 13 -127 10 -133 -6z m137 -74 c0 -44 -53
-48 -64 -5 -3 13 -9 30 -12 39 -5 13 -1 13 35 -1 26 -10 41 -22 41 -33z"/>
<path d="M5914 4233 c4 -15 23 -53 42 -85 24 -40 34 -68 34 -97 0 -38 2 -41
28 -41 26 0 27 2 27 53 0 52 40 151 68 169 9 6 8 11 -3 18 -23 15 -38 12 -44
-8 -4 -10 -17 -33 -30 -50 -22 -30 -24 -31 -38 -14 -9 9 -22 31 -29 47 -9 19
-23 31 -38 33 -21 3 -23 1 -17 -25z"/>
<path d="M6532 4183 l-223 -3 3 -43 3 -42 309 -3 c324 -2 336 -1 336 42 -1 56
-2 56 -428 49z"/>
<path d="M3347 4173 c-14 -13 -7 -71 9 -77 21 -8 269 -8 478 1 164 6 166 6
172 30 13 52 8 53 -336 53 -174 0 -320 -3 -323 -7z"/>
</g>
</svg>
